# xmcd CD database file
#
# Track frame offsets:
#	150
#	18375
#	41775
#	58313
#
# Disc length: 1059 seconds
#
# Revision: 0
# Processed by: cddbd v1.5.2PL0 Copyright (c) Steve Scherf et al.
# Submitted via: CDex 1.70beta2
#
DISCID=33042104
DTITLE=MyonMyon - 蓬莱姫譚
DYEAR=2008
DGENRE=東方アレンジ
TTITLE0=染まれ紅蓮に繋がれて
TTITLE1=蓬莱姫譚
TTITLE2=遥か遠く遥か彼方
TTITLE3=過ぎ去り往く暦
EXTD=YEAR: 2008
EXTT0=
EXTT1=
EXTT2=
EXTT3=
PLAYORDER=
